<svg xmlns="http://www.w3.org/2000/svg" width="769.96" height="241.327" id="bentley">
  <path d="M394.275 235.575c4.356 8.208 17.023 5.879 18.831-2.372 5.211 7.594 17.275 4.049 18.426-3.939 5.046 5.5 15.056 3.3 17.325-3.824 37.131-15.27 64.307-42.9 74.936-75.873a14.135 14.135 0 0 0 5.726-4.389c11.484 2.7 24.316 8.1 29.044-4.728 10.136 2.7 31.389 9.775 37.822-7.424 14.859 2.027 36.468 3.375 39.175-12.158 12.832 0 35.115-2.027 35.115-16.886 12.837 0 35.12-8.783 32.419-18.914 11.484-1.348 27.023-13.506 27.023-21.609 11.483-3.377 24.315-12.159 21.609-23.638 6.75-4.054 18.234-8.783 18.234-15.533s-5.4-12.158-11.484-12.158-29.044 1.392-37.148 1.392-106.035-1.353-129 0-52.007 1.983-66.192.636c-10.448-1.008-46.046-3.046-67.419 2.668-45.268-22.431-102.2-22.437-147.479 0-21.368-5.709-56.971-3.671-67.425-2.679-14.185 1.353-43.224.712-66.192-.636s-120.9 0-129 0-31.066-1.392-37.148-1.392S0 17.527 0 24.277 11.484 35.761 18.24 39.81c-2.707 11.484 10.13 20.261 21.609 23.636 0 8.1 15.533 20.261 27.017 21.609-2.7 10.136 19.587 18.914 32.419 18.914 0 14.854 22.289 16.886 35.12 16.886 2.7 15.533 24.316 14.185 39.175 12.158 6.432 17.2 27.691 10.131 37.822 7.424 4.728 12.837 17.56 7.43 29.044 4.728a14.1 14.1 0 0 0 5.726 4.389c10.629 32.984 37.811 60.609 74.936 75.879.027.1-.033-.1 0 0 2.268 7.123 12.278 9.325 17.325 3.824 1.151 7.988 13.215 11.528 18.426 3.939 1.8 8.251 14.476 10.58 18.826 2.372 1.036 7.676 17.555 7.676 18.59.005Z"></path>
  <path fill="#fff" d="M268.138 147.878c3.972 9.079 16.525 7.188 24.042 4.356 10.027 15.254 26.7 27.669 47.24 35.17l-16.312 27.647c-31.707-13.813-55.179-36.934-65.523-64.163a32.818 32.818 0 0 0 10.553-3.01Z"></path>
  <path fill="#fff" d="M320.747 222.23c-35.005-14.782-60.735-40.643-71.392-71.644a23.448 23.448 0 0 0 5.408.5c10.437 28.2 34.54 52.166 67.14 66.395a14.245 14.245 0 0 0-1.156 4.749Zm18.316.827a.46.46 0 0 1-.016.049c-5.189 12.766-20.579 5.38-13.615-6.673l16.585-28.107q4.561 1.545 9.347 2.772c.065.432-12.12 31.377-12.301 31.958Zm17.538 3.972c-3.211 12.772-18.607 8.876-14.985-3.079l13.182-32.03q4.7 1.068 9.577 1.8c.033.121-7.775 33.307-7.775 33.307Zm18.075 2.016c-1.145 13.741-18.015 11.358-14.991-2.329 0 .011 7.534-32.518 7.561-32.589 3.167.4 6.378.707 9.638.893.115.3-2.2 33.751-2.208 34.025Zm2.937-.208c0 .005 1.8-33.263 1.825-33.345a88.979 88.979 0 0 0 11.068-.1c.153.285 2.246 33.1 2.279 33.373 1.019 13.445-15.977 13.719-15.171.071ZM11.112 20.201c1.512-1.156 4.767-1.1 8.881-1.326 20.935 0 69.567 1.355 79.024 1.355s76.323 7.43 86.788 10.81c4.728 1.353 5.742 6.076 0 6.416s-77.123 1.359-87.253 1.359c-7.857 0-48.725-.137-72.345-4.822C13.429 31.455 6.57 23.664 11.112 20.201Zm23 25.012c12.158.34 72.942.679 80.037.34s62.137-3.375 68.553-3.715c13.878-.729 18.371 5.452 3.715 8.783-7.43 1.693-75.983 9.457-127.99 8.443-9.8.34-22.963-4.728-26.343-9.457s.34-4.394 2.027-4.394Zm23.637 22.294c8.443 0 108.063-7.43 129-11.818 18.212-2.772 14.1 6.586 6.75 8.1-6.18 1.277-80.037 15.533-117.519 16.207-12.5-.334-27.017-12.158-18.234-12.492Zm25.324 20.935c11.824-1.353 90.508-13.845 111.783-19.587 19.242-4.986 15.358 7.8 8.443 9.8-6.163 1.775-73.216 18.093-88.481 18.91a80.985 80.985 0 0 1-19.33-1.3c-21.565-4.316-12.415-7.823-12.415-7.823Zm31.745 17.56c8.443-1.688 77-17.226 96.584-24.65 9.544-3.326 12.415 6.049 6.416 8.777-3.715 1.688-56.4 23.636-81.385 24.99-9.117 0-25.981-4.909-21.615-9.117Zm111.778-14.185c-7.764 3.715-55.042 23.642-73.282 27.7-2.531.674-5.205 1.792-4.991 3.2 1.622 10.783 35.186 1.611 37.515.866 12.909-4.137 39.224-13.8 50.385-24.672-2.702-1.352-8.948-5.741-9.627-7.094Zm14.185 11.484c-5.063 3.375-38.161 20.607-53.355 25.329-7.939 2.646.416 10.81 15.922 6.389 17.138-2.657 42.161-22.935 46.215-26.65-2.027-1.014-6.416-3.715-8.783-5.068Zm15.538 9.123c-6.12 4.186-17.9 12.01-25.379 17-3.085 2.06-10.448 6.131-10.29 9.386.077 1.556 3.035 4.509 16.552-.4 8.4-3.441 18.579-10.438 27.22-22.946a72.475 72.475 0 0 1-8.103-3.04Zm15.193 5.063c-3.167 3.167-7.26 7.5-11.265 11.484-3.687 4.756-11.906 8.18-9.079 13.676 3.063 5.95 12.706-2.613 16.18-5.89 4.909-4.641 9.649-10.772 11.429-16.908a51.866 51.866 0 0 1-7.265-2.361Z"></path>
  <path fill="#fff" d="M153.993 17.527c8.783 0 38.5 2.027 49.306 2.027 31.055 0 73.079-5.479 101.964.455 17.955 3.687 20.53 8.887 20.53 14.476 0 7.271-6.076 11.637-10.383 14.793-5.063 3.715-20.6 12.832-21.275 36.474-4.049-1.688-9.791-2.7-5.737-11.144 7.073-14.152 22.979-31.389-4.224-38.731a71.427 71.427 0 0 0-16.037-2.131c-19.921-.675-48.811-.823-58.611-2.511S162.771 20.913 155.007 19.9c-3.381-.352-3.381-2.039-1.014-2.373Z"></path>
  <path fill="#fff" d="M232.063 38.062c7.09 0 28.8-.148 36.085.2 20.141.959 34.523 10.772 19.976 29.187a163.153 163.153 0 0 1-13.505 13.842c-2.7 2.027-7.769-1.353-3.381-6.416-5.742 3.375-12.832 2.7-9.457-5.063-5.068 4.054-13.506 4.389-8.443-6.076-3.375 2.7-12.832 2.367-6.756-5.742-5.063 1.688-10.8-1.353-7.09-6.416-6.416 1.019-10.131-3.715-3.375-7.424-6.416 1.671-8.1-5.758-4.054-6.093Zm-19.812-3.589c-2.734-.175-14.6-2.1-14.311 4.29s13.462 3.985 16.169 3.479c4.986-.926 8.969-2.449 8.854-4.515-.115-2.12-5.309-2.914-10.712-3.254Zm.482 10.964c-2.882.219-13.243-.29-11.626 5.561.51 1.841 4.317 5.567 17.056 2.471 5.583-1.359 8.476-4.35 8.476-6.728 0-2.077-7.506-1.792-13.906-1.3Zm8.18 9.5c-2.049.34-13.928 1.151-11.939 7.139 1.392 4.175 3.528 2.855 7.15 3.287 2.389.285 20.086-4.7 17.319-10.377-.821-1.687-6.026-1.117-12.534-.049Zm5.873 8.487c-11.777 4.783-11.625 8.024-11.088 9.769s5.933 3.918 17.111-1.545c5.66-2.767 5.731-5.912 4.339-8.136-1.737-2.789-6.131-1.808-10.361-.088Zm8.246 8.043c-12.262 4.274-11.561 8.175-10.591 10.465 1.068 2.531 4.942 5.227 15.177-1.293 6.18-3.934 10.2-7.232 9.1-9.851-.996-2.378-6.842-1.759-13.685.679Zm4.8 12.284c-3.216 1.951-4.679 4.591-2.652 7.6 3.627 5.391 14.322-4.12 17.007-7.03 1.994-2.159 3.271-4.427 2.142-6.087-1.167-1.709-4.794-1.578-16.5 5.517Zm19.363.915c-14.278 7.282-12.908 10.81-10.919 12.317 2.2 1.666 7.375 3.413 16.032-6.591 3.801-4.383 1.709-9.183-5.113-5.726Zm7.128 7.638c-3.013 3.37-10.076 8.449-4.608 12.235 4.608 3.189 7.309-.312 9.577-2.482 13.117-12.618 8.779-20.609-4.968-9.753Z"></path>
  <path d="M309.411 26.162c10.027 5.013 14.174 10.339 3.879 17.615-1.26.888.3 3.1 1.556 2.208 11.331-8 8.892-16.3-4.224-22.239-1.381-.69-2.586 1.726-1.211 2.416Z"></path>
  <path fill="#fff" d="M447.032 140.47c0-10.772-11.1-21.543-23.417-25.258-3.293-.745-2.772-3.671-.208-4.827 2.466-1.118 16.848-11.144 16.645-23.773 0-12.257-14.388-30.83-56.3-30.83-24.656 0-45.2 5.572-57.53 15.977 2.871 2.23 6.164 5.572 6.164 9.287v67.978c-.411 4.087-2.466 7.43-5.758 11.144 11.068 7.857 30.885 15.352 59.338 15.259 30.409-.745 61.069-9.7 61.069-34.956Z"></path>
  <ellipse cx="23.68" cy="18.914" rx="23.68" ry="18.914" transform="translate(362.152 69.923)"></ellipse>
  <ellipse cx="26.546" cy="19.966" rx="26.546" ry="19.966" transform="translate(362.338 120.132)"></ellipse>
  <path fill="#fff" d="M282.959 107.482a60.329 60.329 0 0 1 4.394-13.385c-.115-.17-3.627-4.663-12.278 7.84-4.778 6.9 3.66 9.676 7.884 5.545Zm-.28 21.236c-3.561 4.137-6.92 7.61-9.139 10.383-4.635 5.8 7.424 12.941 13.922 4.7a60.14 60.14 0 0 1-4.783-15.083ZM448.89 20.661a34.113 34.113 0 0 1 6.005-2.674c-43.24-20.379-96.589-20.379-139.826 0a34.453 34.453 0 0 1 6 2.674c40.042-17.439 88.131-17.286 127.821 0Z"></path>
  <path fill="#fff" d="M468.795 74.284c-4.854-16.886-16.974-23.757-21.675-27.044-9.451-6.6-8.936-16.36-.86-24.771-38.589-16.268-84.421-16.081-122.558 0 8.076 8.41 8.586 18.168-.86 24.771-4.7 3.287-16.826 10.158-21.675 27.044 41.222-42.479 126.409-42.485 167.628 0Zm33.033 73.594c-3.978 9.079-16.53 7.188-24.042 4.356-10.027 15.254-26.7 27.669-47.246 35.17l16.317 27.647c31.707-13.813 55.174-36.934 65.529-64.159a32.77 32.77 0 0 1-10.558-3.013Z"></path>
  <path fill="#fff" d="M449.218 222.23c35.005-14.782 60.74-40.643 71.391-71.644a23.451 23.451 0 0 1-5.408.5c-10.437 28.2-34.54 52.166-67.14 66.395a14.245 14.245 0 0 1 1.157 4.749Zm-18.322.827.022.049c5.189 12.766 20.579 5.38 13.615-6.673l-16.585-28.107q-4.561 1.545-9.347 2.772c-.065.432 12.12 31.377 12.296 31.958Zm-17.538 3.973c3.216 12.772 18.607 8.876 14.985-3.079 0 0-12.492-30.37-13.182-32.03q-4.693 1.068-9.572 1.8c-.033.121 7.769 33.307 7.769 33.307Zm-18.07 2.016c1.145 13.741 18.01 11.358 14.985-2.329.005.011-7.528-32.518-7.561-32.589-3.167.4-6.383.707-9.638.893-.11.3 2.2 33.751 2.214 34.025ZM758.854 20.201c-1.512-1.156-4.767-1.1-8.882-1.326-20.935 0-69.567 1.353-79.024 1.353s-76.323 7.43-86.787 10.81c-4.728 1.353-5.742 6.076 0 6.416s77.117 1.359 87.248 1.359c7.862 0 48.73-.137 72.345-4.822 12.788-2.537 19.648-10.328 15.1-13.791Zm-23 25.012c-12.158.34-72.937.679-80.032.34s-62.137-3.375-68.553-3.715c-13.878-.729-18.377 5.452-3.715 8.783 7.424 1.693 75.983 9.457 127.984 8.443 9.791.34 22.963-4.728 26.343-9.457s-.334-4.394-2.027-4.394Zm-23.637 22.294c-8.443 0-108.062-7.43-129-11.818-18.212-2.772-14.1 6.586-6.75 8.1 6.18 1.277 80.032 15.533 117.519 16.207 12.489-.331 27.008-12.155 18.231-12.489Zm-25.324 20.935c-11.818-1.353-90.508-13.845-111.777-19.587-19.242-4.986-15.363 7.8-8.443 9.8 6.153 1.775 73.211 18.1 88.475 18.914a80.986 80.986 0 0 0 19.33-1.3c21.564-4.32 12.415-7.827 12.415-7.827Zm-31.745 17.56c-8.443-1.688-77-17.226-96.584-24.65-9.539-3.326-12.415 6.049-6.416 8.777 3.715 1.688 56.4 23.636 81.385 24.99 9.117 0 25.982-4.909 21.615-9.117ZM543.364 91.817c7.764 3.715 55.048 23.642 73.282 27.7 2.531.674 5.205 1.792 4.991 3.2-1.622 10.783-35.186 1.611-37.515.866-12.9-4.137-39.224-13.8-50.385-24.672 2.707-1.352 8.953-5.741 9.627-7.094Zm-14.185 11.484c5.063 3.375 38.161 20.607 53.355 25.329 7.939 2.646-.416 10.81-15.922 6.389-17.138-2.657-42.161-22.935-46.215-26.65 2.033-1.014 6.421-3.715 8.783-5.068Zm-15.528 9.123c6.115 4.186 17.9 12.01 25.379 17 3.085 2.06 10.448 6.131 10.29 9.386-.077 1.556-3.035 4.509-16.552-.4-8.4-3.441-18.579-10.438-27.22-22.946a73.7 73.7 0 0 0 8.1-3.041Zm-15.2 5.063c3.167 3.167 7.265 7.5 11.27 11.484 3.693 4.756 11.911 8.18 9.079 13.676-3.063 5.95-12.706-2.613-16.174-5.89-4.909-4.641-9.654-10.772-11.435-16.908a51.56 51.56 0 0 0 7.26-2.361Z"></path>
  <path fill="#fff" d="M615.972 17.527c-8.783 0-38.5 2.027-49.306 2.027-31.061 0-73.085-5.479-101.964.455-17.955 3.691-20.53 8.891-20.53 14.475 0 7.271 6.071 11.637 10.377 14.793 5.068 3.715 20.607 12.832 21.28 36.474 4.049-1.688 9.791-2.7 5.742-11.144-7.079-14.152-22.979-31.389 4.224-38.731a71.435 71.435 0 0 1 16.043-2.131c19.922-.674 48.812-.822 58.6-2.509s46.766-10.323 54.526-11.336c3.375-.356 3.375-2.044 1.008-2.378Z"></path>
  <path fill="#fff" d="M537.897 38.062c-7.09 0-28.8-.148-36.085.2-20.141.956-34.523 10.769-19.977 29.186a163.153 163.153 0 0 0 13.506 13.845c2.7 2.027 7.769-1.353 3.375-6.416 5.747 3.375 12.837 2.7 9.462-5.063 5.063 4.054 13.506 4.389 8.443-6.076 3.375 2.7 12.832 2.367 6.75-5.742 5.068 1.688 10.81-1.353 7.09-6.416 6.421 1.019 10.136-3.715 3.375-7.424 6.427 1.671 8.114-5.758 4.06-6.093Zm19.818-3.589c2.734-.175 14.6-2.1 14.311 4.29s-13.462 3.983-16.169 3.479c-4.986-.926-8.969-2.449-8.854-4.515.115-2.12 5.309-2.915 10.711-3.255Zm-.477 10.964c2.876.219 13.243-.29 11.621 5.561-.51 1.841-4.312 5.567-17.051 2.471-5.589-1.359-8.476-4.35-8.476-6.728 0-2.077 7.5-1.792 13.906-1.3Zm-8.188 9.5c2.049.34 13.928 1.151 11.939 7.139-1.392 4.175-3.528 2.855-7.15 3.287-2.389.285-20.086-4.7-17.319-10.377.823-1.687 6.03-1.117 12.53-.049Zm-5.868 8.487c11.774 4.783 11.621 8.021 11.09 9.769s-5.934 3.917-17.111-1.545c-5.66-2.767-5.737-5.912-4.345-8.136 1.742-2.789 6.136-1.808 10.366-.088Zm-8.251 8.043c12.262 4.274 11.561 8.175 10.591 10.465-1.068 2.531-4.942 5.227-15.182-1.293-6.18-3.934-10.2-7.232-9.1-9.851 1.003-2.378 6.844-1.759 13.687.679Zm-4.8 12.284c3.216 1.951 4.679 4.591 2.652 7.6-3.622 5.391-14.322-4.12-17.007-7.03-1.989-2.159-3.271-4.427-2.142-6.087 1.163-1.709 4.796-1.578 16.493 5.514Zm-19.357.915c14.276 7.282 12.905 10.81 10.916 12.317-2.2 1.666-7.375 3.413-16.032-6.591-3.797-4.383-1.708-9.183 5.112-5.726Zm-7.134 7.638c3.013 3.37 10.076 8.449 4.613 12.235-4.613 3.189-7.314-.312-9.577-2.482-13.12-12.618-8.781-20.609 4.96-9.753Z"></path>
  <path d="M460.551 26.162c-10.023 5.013-14.17 10.338-3.87 17.615 1.255.888-.3 3.1-1.562 2.208-11.325-8-8.887-16.3 4.23-22.239 1.375-.69 2.581 1.726 1.205 2.416Z"></path>
  <path fill="#fff" d="M487.008 107.481a60.342 60.342 0 0 0-4.4-13.385c.115-.17 3.627-4.663 12.278 7.84 4.783 6.9-3.654 9.676-7.879 5.545Zm.274 21.237c3.561 4.137 6.925 7.61 9.144 10.383 4.635 5.8-7.424 12.941-13.922 4.7a59.907 59.907 0 0 0 4.778-15.083Z"></path>
</svg>
