<svg xmlns="http://www.w3.org/2000/svg" width="285.395" height="285.394" id="bmw">
  <path fill-rule="evenodd" d="M142.7 0c78.6 0 142.7 64.1 142.7 142.7s-64.1 142.7-142.7 142.7S0 221.293 0 142.7 64.1 0 142.7 0Z"></path>
  <path fill="#fff" d="M59.792 99.901 26.12 70.94l12.609-14.66a27.569 27.569 0 0 1 7.191-6.3 11.787 11.787 0 0 1 6.8-1.528 9.888 9.888 0 0 1 5.767 2.287 9.043 9.043 0 0 1 2.887 4.857 12.411 12.411 0 0 1-.446 6.751 13.8 13.8 0 0 1 7.734-2.824 9.844 9.844 0 0 1 6.746 2.48 11.535 11.535 0 0 1 3.4 4.946 11.724 11.724 0 0 1 .671 5.562 17.053 17.053 0 0 1-2.014 5.7 39.419 39.419 0 0 1-4.856 6.788Zm-15.07-21.964 7.27-8.452a28.951 28.951 0 0 0 3.848-5.266 7.361 7.361 0 0 0 .872-4.408 5.8 5.8 0 0 0-2.08-3.529 6.428 6.428 0 0 0-3.746-1.608 6.236 6.236 0 0 0-4.039 1.161 34.012 34.012 0 0 0-5.592 5.55l-6.711 7.8Zm15.546 13.371 8.361-9.723a35.5 35.5 0 0 0 2.87-3.656 12.35 12.35 0 0 0 1.64-3.778 6.887 6.887 0 0 0-.168-3.578 6.959 6.959 0 0 0-2.173-3.214 6.7 6.7 0 0 0-4.239-1.7 7.832 7.832 0 0 0-4.628 1.432 29.658 29.658 0 0 0-5.468 5.232l-7.771 9.032Zm55.509-41.158V12.062h10.041l11.919 26.967c1.1 2.51 1.912 4.39 2.4 5.64q.862-2.075 2.686-6.11l12.069-26.497h8.974V50.15h-6.428V18.269L142.792 50.15h-6.018l-14.57-32.422V50.15h-6.428Zm91.087 22.24 23.305-31.6 3.18 3.925-15.783 20.084q-2.437 3.131-5.055 6.115c3.755-1.816 5.919-2.856 6.516-3.117l24.392-10.654 3.743 4.618-11.59 16.25a105.408 105.408 0 0 1-8.626 10.715c2.158-1.146 4.7-2.4 7.588-3.763l22.644-10.844 3.121 3.85-35.95 16-2.989-3.69 17.555-24.319q2.2-3.057 2.728-3.716-2.4 1.191-4.153 1.959l-27.462 12.091Z"></path>
  <path fill="#00acec" fill-rule="evenodd" d="M226.991 144.111a83.04 83.04 0 0 1-82.88 82.88v-82.88Z"></path>
  <path fill="#fff" fill-rule="evenodd" d="M226.991 141.284a83.04 83.04 0 0 0-82.88-82.88v82.88Z"></path>
  <path fill="#00acec" fill-rule="evenodd" d="M58.404 141.284a83.04 83.04 0 0 1 82.88-82.88v82.88Z"></path>
  <path fill="#fff" fill-rule="evenodd" d="M58.404 144.111a83.04 83.04 0 0 0 82.88 82.88v-82.88Z"></path>
</svg>
